<?xml version="1.0" encoding="utf-8"?>
<!-- Generator: Adobe Illustrator 16.0.4, SVG Export Plug-In . SVG Version: 6.00 Build 0)  -->
<!DOCTYPE svg PUBLIC "-//W3C//DTD SVG 1.1//EN" "http://www.w3.org/Graphics/SVG/1.1/DTD/svg11.dtd">
<svg version="1.1" id="Layer_1" xmlns="http://www.w3.org/2000/svg" xmlns:xlink="http://www.w3.org/1999/xlink" x="0px" y="0px"
	 width="257.665px" height="65.43px" viewBox="0 0 257.665 65.43" enable-background="new 0 0 257.665 65.43" xml:space="preserve">
<g>
	<g>
		<path fill="#FFFFFF" d="M46.622,7.672h4.132l9.539,12.542V7.672h4.423v20.366h-3.812L51.044,15.09v12.948h-4.422V7.672z"/>
		<path fill="#FFFFFF" d="M74.779,20.009L66.954,7.672h5.236l4.858,8.176l4.946-8.176h5.091l-7.827,12.251v8.115h-4.479V20.009z"/>
		<path fill="#FFFFFF" d="M89.003,19.311V7.672h4.479v11.522c0,3.317,1.657,5.035,4.394,5.035c2.733,0,4.392-1.66,4.392-4.887V7.672
			h4.481v11.494c0,6.166-3.463,9.192-8.933,9.192S89.003,25.305,89.003,19.311z"/>
	</g>
	<g>
		<path fill="#FFFFFF" d="M37.324,35.942H1.474V0.088h35.85V35.942L37.324,35.942z M18.159,31.75c0.042,0.252,0.586,0.373,0.708,0
			l1.252-9.934h-3.045L18.159,31.75L18.159,31.75z M21.183,21.098v-1.504h-5.174v1.504H21.183L21.183,21.098z M19.692,18.86
			c6.559,0.236,7.023-5.743,7.049-7.979c0.003-0.129-0.06-0.143-0.093-0.052c-0.192,0.467-1.048,2.135-3.413,3.149
			c-2.111,0.905-3.382,2.962-3.603,4.809C19.622,18.834,19.661,18.857,19.692,18.86z M18.971,18.426
			c1.038-4.978,5.089-5.1,5.452-6.043c0.565-1.473-0.47-4.088-0.734-4.396c-0.026-0.034-0.062-0.013-0.072,0.016
			c-0.553,1.206-1.442,2.353-2.093,2.882c-0.918,0.739-4.438,3.348-2.638,7.545C18.908,18.48,18.958,18.467,18.971,18.426z
			 M18.255,18.625c-2.197-4.694,2.194-7.724,2.913-8.383c0.101-0.09,0.075-0.176,0.075-0.282c0.002-1.476-0.843-3.867-1.121-4.21
			c-0.039-0.052-0.072-0.031-0.088,0.023c-0.376,1.458-2.378,3.629-2.778,4.104c-3.393,4.033-2.617,6.489,0.926,8.806
			C18.226,18.712,18.281,18.678,18.255,18.625z M17.272,18.787c-3.675-2.192-3.307-5.323-1.785-7.626
			c0.034-0.047,0.044-0.127,0.034-0.22c-0.065-0.547-0.661-1.933-0.91-2.309c-0.065-0.096-0.12-0.088-0.125-0.021
			c-0.021,0.625-0.734,2.194-1.824,4.002c-1.159,1.924-1.162,6.098,4.594,6.262C17.311,18.875,17.326,18.821,17.272,18.787z"/>
	</g>
</g>
<g>
	<path fill="#FFFFFF" d="M1.391,44.158h11.336v1.104H2.586v6.6h9.106v1.104H2.586v7.29H1.391V44.158z"/>
	<path fill="#FFFFFF" d="M14.259,56.852v-0.046c0-2.438,2.093-3.817,5.128-3.817c1.633,0,2.759,0.207,3.886,0.506v-0.506
		c0-2.368-1.448-3.587-3.863-3.587c-1.426,0-2.598,0.391-3.679,0.943l-0.414-0.989c1.288-0.598,2.553-1.012,4.162-1.012
		c1.587,0,2.852,0.437,3.702,1.288c0.782,0.782,1.196,1.862,1.196,3.311v7.312h-1.104V58.3c-0.805,1.127-2.253,2.231-4.483,2.231
		C16.604,60.531,14.259,59.289,14.259,56.852z M23.296,55.862v-1.333C22.307,54.276,20.996,54,19.317,54
		c-2.483,0-3.863,1.104-3.863,2.736v0.046c0,1.702,1.61,2.69,3.403,2.69C21.249,59.473,23.296,58.001,23.296,55.862z"/>
	<path fill="#FFFFFF" d="M27.621,54.437v-0.046c0-3.288,2.621-6.14,5.979-6.14c2.207,0,3.587,1.012,4.69,2.162l-0.805,0.828
		c-1.012-1.035-2.161-1.932-3.909-1.932c-2.667,0-4.736,2.23-4.736,5.036v0.046c0,2.829,2.139,5.082,4.829,5.082
		c1.655,0,2.943-0.851,3.932-1.954l0.782,0.689c-1.196,1.356-2.622,2.323-4.783,2.323C30.22,60.531,27.621,57.726,27.621,54.437z"/>
	<path fill="#FFFFFF" d="M41.329,55.701v-7.174h1.127v6.968c0,2.414,1.356,4.001,3.726,4.001c2.299,0,4.07-1.748,4.07-4.186v-6.783
		h1.126v11.728h-1.126V58.07c-0.782,1.38-2.093,2.461-4.231,2.461C43.054,60.531,41.329,58.507,41.329,55.701z"/>
	<path fill="#FFFFFF" d="M55.819,43.469h1.126v16.786h-1.126V43.469z"/>
	<path fill="#FFFFFF" d="M62.006,57.242v-7.68h-1.702v-1.035h1.702v-3.748h1.126v3.748h4.116v1.035h-4.116v7.565
		c0,1.679,0.989,2.277,2.346,2.277c0.575,0,1.058-0.115,1.725-0.414v1.058c-0.598,0.276-1.173,0.414-1.908,0.414
		C63.478,60.462,62.006,59.473,62.006,57.242z"/>
	<path fill="#FFFFFF" d="M79.76,48.527h1.242L75.92,60.669c-1.035,2.46-2.23,3.334-3.909,3.334c-0.897,0-1.541-0.161-2.322-0.506
		l0.391-0.988c0.621,0.299,1.127,0.437,2,0.437c1.219,0,2.024-0.713,2.897-2.76l-5.634-11.658h1.312l4.874,10.485L79.76,48.527z"/>
	<path fill="#FFFFFF" d="M91.262,44.158h5.357c5.06,0,8.555,3.473,8.555,8.002v0.046c0,4.53-3.495,8.048-8.555,8.048h-5.357V44.158z
		 M92.457,45.262v13.889h4.162c4.484,0,7.312-3.059,7.312-6.899v-0.046c0-3.817-2.828-6.944-7.312-6.944H92.457z"/>
	<path fill="#FFFFFF" d="M109.017,43.928h1.403v1.541h-1.403V43.928z M109.155,48.527h1.126v11.728h-1.126V48.527z"/>
	<path fill="#FFFFFF" d="M114.49,62.187l0.667-0.92c1.403,1.081,3.013,1.655,4.737,1.655c2.69,0,4.599-1.54,4.599-4.553v-1.702
		c-1.012,1.449-2.575,2.714-4.897,2.714c-2.828,0-5.634-2.161-5.634-5.519v-0.046c0-3.38,2.806-5.565,5.634-5.565
		c2.346,0,3.932,1.242,4.897,2.622v-2.346h1.127v9.911c0,1.701-0.552,3.035-1.494,3.978c-1.013,1.012-2.53,1.564-4.255,1.564
		C117.917,63.98,116.101,63.382,114.49,62.187z M124.562,53.839v-0.046c0-2.713-2.414-4.461-4.852-4.461
		c-2.461,0-4.53,1.702-4.53,4.438v0.046c0,2.645,2.115,4.483,4.53,4.483C122.148,58.3,124.562,56.507,124.562,53.839z"/>
	<path fill="#FFFFFF" d="M129.924,43.928h1.403v1.541h-1.403V43.928z M130.062,48.527h1.126v11.728h-1.126V48.527z"/>
	<path fill="#FFFFFF" d="M136.249,57.242v-7.68h-1.702v-1.035h1.702v-3.748h1.126v3.748h4.116v1.035h-4.116v7.565
		c0,1.679,0.989,2.277,2.346,2.277c0.575,0,1.058-0.115,1.725-0.414v1.058c-0.598,0.276-1.173,0.414-1.908,0.414
		C137.721,60.462,136.249,59.473,136.249,57.242z"/>
	<path fill="#FFFFFF" d="M143.861,56.852v-0.046c0-2.438,2.093-3.817,5.128-3.817c1.633,0,2.759,0.207,3.886,0.506v-0.506
		c0-2.368-1.448-3.587-3.863-3.587c-1.426,0-2.598,0.391-3.679,0.943l-0.414-0.989c1.288-0.598,2.553-1.012,4.162-1.012
		c1.587,0,2.852,0.437,3.702,1.288c0.782,0.782,1.196,1.862,1.196,3.311v7.312h-1.104V58.3c-0.805,1.127-2.253,2.231-4.483,2.231
		C146.207,60.531,143.861,59.289,143.861,56.852z M152.898,55.862v-1.333c-0.989-0.253-2.3-0.529-3.979-0.529
		c-2.483,0-3.863,1.104-3.863,2.736v0.046c0,1.702,1.61,2.69,3.403,2.69C150.852,59.473,152.898,58.001,152.898,55.862z"/>
	<path fill="#FFFFFF" d="M158.19,43.469h1.126v16.786h-1.126V43.469z"/>
	<path fill="#FFFFFF" d="M177.025,44.043h1.15l7.496,16.211h-1.311l-2.047-4.507h-9.497l-2.046,4.507h-1.242L177.025,44.043z
		 M181.809,54.667l-4.231-9.313l-4.254,9.313H181.809z"/>
	<path fill="#FFFFFF" d="M188.826,48.527h1.127v3.334c0.92-2.093,2.874-3.61,5.196-3.519v1.242h-0.114
		c-2.714,0-5.082,2.047-5.082,5.863v4.807h-1.127V48.527z"/>
	<path fill="#FFFFFF" d="M196.22,54.437v-0.046c0-3.288,2.621-6.14,5.979-6.14c2.207,0,3.587,1.012,4.69,2.162l-0.805,0.828
		c-1.012-1.035-2.161-1.932-3.909-1.932c-2.667,0-4.736,2.23-4.736,5.036v0.046c0,2.829,2.139,5.082,4.829,5.082
		c1.655,0,2.943-0.851,3.932-1.954l0.782,0.689c-1.196,1.356-2.622,2.323-4.783,2.323C198.818,60.531,196.22,57.726,196.22,54.437z"
		/>
	<path fill="#FFFFFF" d="M210.157,43.469h1.127v7.243c0.781-1.38,2.092-2.46,4.23-2.46c2.967,0,4.691,2.023,4.691,4.829v7.174
		h-1.127v-6.967c0-2.415-1.356-4.001-3.726-4.001c-2.299,0-4.069,1.748-4.069,4.185v6.784h-1.127V43.469z"/>
	<path fill="#FFFFFF" d="M224.279,43.928h1.403v1.541h-1.403V43.928z M224.418,48.527h1.126v11.728h-1.126V48.527z"/>
	<path fill="#FFFFFF" d="M228.787,48.527h1.312l4.438,10.463l4.484-10.463h1.265l-5.266,11.819h-0.966L228.787,48.527z"/>
	<path fill="#FFFFFF" d="M241.563,54.414v-0.046c0-3.403,2.392-6.117,5.564-6.117c3.288,0,5.381,2.667,5.381,6.14
		c0,0.207,0,0.276-0.023,0.46h-9.727c0.207,2.92,2.3,4.622,4.6,4.622c1.816,0,3.058-0.805,4.023-1.84l0.782,0.69
		c-1.196,1.287-2.599,2.208-4.853,2.208C244.23,60.531,241.563,58.07,241.563,54.414z M251.29,53.839
		c-0.161-2.369-1.518-4.553-4.208-4.553c-2.322,0-4.116,1.955-4.323,4.553H251.29z"/>
</g>
<line fill="none" x1="117.274" y1="2.566" x2="117.274" y2="36.775"/>
<line stroke="#FFFFFF" stroke-miterlimit="10" x1="117.67" y1="35.921" x2="117.67" y2="2.081"/>
<g>
	<path fill="#FFFFFF" d="M128.683,7.614h14.301v1.392h-12.792v8.325h11.486v1.392h-11.486v9.195h-1.509V7.614z"/>
	<path fill="#FFFFFF" d="M147.707,7.614h6.759c6.382,0,10.791,4.38,10.791,10.094v0.058c0,5.714-4.409,10.152-10.791,10.152h-6.759
		V7.614z M149.215,9.006v17.52h5.25c5.656,0,9.225-3.858,9.225-8.702v-0.058c0-4.815-3.568-8.76-9.225-8.76H149.215z"/>
	<path fill="#FFFFFF" d="M178.1,7.469h1.451l9.457,20.45h-1.654l-2.582-5.686h-11.98l-2.58,5.686h-1.566L178.1,7.469z
		 M184.133,20.87l-5.336-11.748L173.43,20.87H184.133z"/>
</g>
</svg>
